<svg width="212" height="155" viewBox="0 0 212 155" fill="none" xmlns="http://www.w3.org/2000/svg">
<g clip-path="url(#clip0_1_242)">
<g opacity="0.6">
<path d="M204.671 105.819C207.222 90.0561 203.842 71.8697 191.723 60.647C179.667 49.4818 163.243 44.53 151.269 33.2345C142.997 25.4292 136.994 14.9566 127.79 8.16744C118.468 1.29187 105.826 -1.35505 94.4978 0.65512C89.3716 1.56452 84.3569 3.41889 80.1596 6.50613C72.1047 12.43 68.1794 21.8949 64.7557 30.9601C61.2003 40.3742 57.1635 50.6808 50.5662 58.4404C43.8895 66.2931 33.507 70.6741 24.969 76.0882C15.4226 82.1407 6.12618 90.7742 4.97764 102.039C4.08752 110.764 8.06181 118.664 12.6931 125.729C18.8344 135.1 26.1766 144.78 31.7014 154.439C31.7014 154.439 63.7659 154.358 79.6344 154.439C99.8047 154.541 120.007 154.119 140.178 154.221C148.739 154.265 158.493 155.762 166.521 152.819C175.887 149.386 186.004 145.086 192.754 137.384C200.081 129.022 202.945 116.507 204.675 105.823L204.671 105.819Z" fill="#9AEFFB"/>
<path d="M42.7781 61.3091C43.8024 61.3091 44.6327 60.4766 44.6327 59.4497C44.6327 58.4227 43.8024 57.5902 42.7781 57.5902C41.7539 57.5902 40.9236 58.4227 40.9236 59.4497C40.9236 60.4766 41.7539 61.3091 42.7781 61.3091Z" fill="#9AEFFB"/>
<path d="M207.416 125.824C208.44 125.824 209.271 124.992 209.271 123.965C209.271 122.938 208.44 122.105 207.416 122.105C206.392 122.105 205.562 122.938 205.562 123.965C205.562 124.992 206.392 125.824 207.416 125.824Z" fill="#9AEFFB"/>
<path d="M161.968 31.3445C162.992 31.3445 163.822 30.512 163.822 29.4851C163.822 28.4581 162.992 27.6256 161.968 27.6256C160.943 27.6256 160.113 28.4581 160.113 29.4851C160.113 30.512 160.943 31.3445 161.968 31.3445Z" fill="#9AEFFB"/>
<path d="M34.5745 30.6603C32.7402 30.6603 31.2522 32.1523 31.2522 33.9914C31.2522 35.8306 32.7402 37.3225 34.5745 37.3225C36.4088 37.3225 37.8968 35.8306 37.8968 33.9914C37.8968 32.1523 36.4088 30.6603 34.5745 30.6603ZM34.5745 35.8949C33.5256 35.8949 32.676 35.0431 32.676 33.9914C32.676 32.9398 33.5256 32.0879 34.5745 32.0879C35.6234 32.0879 36.473 32.9398 36.473 33.9914C36.473 35.0431 35.6234 35.8949 34.5745 35.8949Z" fill="#9AEFFB"/>
<path d="M202.146 138.194C200.312 138.194 198.824 139.685 198.824 141.525C198.824 143.364 200.312 144.856 202.146 144.856C203.981 144.856 205.469 143.364 205.469 141.525C205.469 139.685 203.981 138.194 202.146 138.194ZM202.146 143.428C201.097 143.428 200.248 142.576 200.248 141.525C200.248 140.473 201.097 139.621 202.146 139.621C203.195 139.621 204.045 140.473 204.045 141.525C204.045 142.576 203.195 143.428 202.146 143.428Z" fill="#9AEFFB"/>
<path d="M163.25 9.33084C162.216 9.33084 161.378 10.1708 161.378 11.2072C161.378 12.2436 162.216 13.0836 163.25 13.0836C164.283 13.0836 165.121 12.2436 165.121 11.2072C165.121 10.1708 164.283 9.33084 163.25 9.33084ZM163.25 12.2792C162.658 12.2792 162.18 11.7999 162.18 11.2072C162.18 10.6145 162.658 10.1352 163.25 10.1352C163.841 10.1352 164.319 10.6145 164.319 11.2072C164.319 11.7999 163.841 12.2792 163.25 12.2792Z" fill="#9AEFFB"/>
<path d="M4.32219 123.316C2.88145 123.316 1.71265 124.488 1.71265 125.933C1.71265 127.377 2.88145 128.549 4.32219 128.549C5.76293 128.549 6.93174 127.377 6.93174 125.933C6.93174 124.488 5.76293 123.316 4.32219 123.316ZM4.32219 127.428C3.49795 127.428 2.83078 126.759 2.83078 125.933C2.83078 125.106 3.49795 124.437 4.32219 124.437C5.14644 124.437 5.81361 125.106 5.81361 125.933C5.81361 126.759 5.14644 127.428 4.32219 127.428Z" fill="#9AEFFB"/>
<path d="M56.2412 36.9635L54.9846 36.276L55.6703 35.016C55.8477 34.6892 55.7277 34.281 55.4018 34.1032C55.0758 33.9254 54.6687 34.0457 54.4914 34.3725L53.8056 35.6325L52.549 34.9449C52.223 34.7671 51.8159 34.8873 51.6386 35.2142C51.4613 35.541 51.5812 35.9491 51.9072 36.127L53.1638 36.8145L52.478 38.0745C52.3007 38.4013 52.4206 38.8094 52.7466 38.9873C53.0726 39.1651 53.4796 39.0448 53.657 38.718L54.3427 37.458L55.5994 38.1456C55.9254 38.3234 56.3324 38.2032 56.5098 37.8763C56.6871 37.5495 56.5672 37.1414 56.2412 36.9635Z" fill="#9AEFFB"/>
<path d="M150.168 17.7644L148.912 17.0769L149.597 15.8169C149.775 15.4901 149.655 15.082 149.329 14.9041C149.003 14.7263 148.596 14.8466 148.418 15.1734L147.733 16.4334L146.476 15.7458C146.15 15.568 145.743 15.6882 145.566 16.0151C145.388 16.3419 145.508 16.75 145.834 16.9279L147.091 17.6154L146.405 18.8754C146.228 19.2022 146.348 19.6103 146.674 19.7882C147 19.966 147.407 19.8457 147.584 19.5189L148.27 18.2589L149.526 18.9465C149.852 19.1243 150.259 19.0041 150.437 18.6772C150.614 18.3504 150.494 17.9423 150.168 17.7644Z" fill="#9AEFFB"/>
<path d="M14.6406 144.465L13.384 143.777L14.0697 142.517C14.2471 142.19 14.1271 141.782 13.8012 141.604C13.4752 141.426 13.0681 141.547 12.8908 141.874L12.205 143.133L10.9484 142.446C10.6224 142.268 10.2154 142.388 10.038 142.715C9.86066 143.042 9.98058 143.45 10.3066 143.628L11.5632 144.316L10.8775 145.575C10.7001 145.902 10.82 146.31 11.146 146.488C11.472 146.666 11.8791 146.546 12.0564 146.219L12.7421 144.959L13.9988 145.647C14.3248 145.824 14.7318 145.704 14.9092 145.377C15.0865 145.05 14.9666 144.642 14.6406 144.465Z" fill="#9AEFFB"/>
<path d="M74.5353 59.741H59.7377C58.5372 59.741 57.564 60.7168 57.564 61.9205V76.7571C57.564 77.9609 58.5372 78.9367 59.7377 78.9367H74.5353C75.7359 78.9367 76.7091 77.9609 76.7091 76.7571V61.9205C76.7091 60.7168 75.7359 59.741 74.5353 59.741Z" fill="white"/>
<path d="M74.5353 59.741H59.7377C58.5372 59.741 57.564 60.7168 57.564 61.9205V76.7571C57.564 77.9609 58.5372 78.9367 59.7377 78.9367H74.5353C75.7359 78.9367 76.7091 77.9609 76.7091 76.7571V61.9205C76.7091 60.7168 75.7359 59.741 74.5353 59.741Z" stroke="#231F20" stroke-width="1.15204" stroke-miterlimit="10" stroke-linecap="round"/>
<path d="M66.0717 72.6149L63.2712 69.8071L64.8707 68.2016L66.0717 69.4057L69.4041 66.0628L71.0036 67.6665L66.0717 72.6149Z" fill="#387FF7"/>
<path d="M60.7191 99.8191H52.1743C50.9737 99.8191 50.0005 100.795 50.0005 101.999V110.566C50.0005 111.77 50.9737 112.745 52.1743 112.745H60.7191C61.9196 112.745 62.8928 111.77 62.8928 110.566V101.999C62.8928 100.795 61.9196 99.8191 60.7191 99.8191Z" fill="#414042"/>
<path d="M54.1976 107.313C54.2331 107.396 54.2145 107.491 54.152 107.553L53.75 107.955C53.647 108.058 53.647 108.226 53.75 108.329L54.3969 108.979C54.5 109.082 54.6672 109.082 54.7685 108.979L55.1671 108.581C55.233 108.515 55.3326 108.502 55.4171 108.541C55.4678 108.564 55.5201 108.586 55.5725 108.605C55.6586 108.637 55.7194 108.718 55.7194 108.812V109.375C55.7194 109.521 55.836 109.64 55.9812 109.64H56.8967C57.0419 109.641 57.1602 109.523 57.1602 109.377V108.808C57.1602 108.718 57.2159 108.639 57.2987 108.605C57.3527 108.585 57.4135 108.559 57.471 108.535C57.5537 108.5 57.6483 108.519 57.7108 108.581L58.1111 108.984C58.2141 109.088 58.3797 109.088 58.4827 108.984L59.1313 108.336C59.2343 108.232 59.2343 108.065 59.1313 107.961L58.7344 107.562C58.6685 107.496 58.655 107.396 58.6938 107.311C58.7175 107.26 58.7394 107.208 58.758 107.155C58.7918 107.069 58.8712 107.008 58.9641 107.008H59.5265C59.6718 107.01 59.79 106.891 59.79 106.745V105.826C59.7934 105.68 59.6751 105.562 59.5299 105.562H58.9624C58.8729 105.562 58.7935 105.506 58.7597 105.421C58.7394 105.367 58.7141 105.306 58.6904 105.248C58.655 105.165 58.6735 105.071 58.7377 105.008L59.1397 104.607C59.2427 104.503 59.2427 104.337 59.1397 104.234L58.4928 103.582C58.3898 103.479 58.2243 103.479 58.1212 103.582L57.7226 103.98C57.6567 104.046 57.5571 104.06 57.4726 104.021C57.4186 103.997 57.3646 103.973 57.3105 103.953C57.2227 103.921 57.1636 103.839 57.1636 103.746V103.182C57.1636 103.037 57.0453 102.918 56.9001 102.918H55.9846C55.8394 102.918 55.7211 103.037 55.7211 103.182V103.751C55.7211 103.841 55.6671 103.922 55.5826 103.955C55.5286 103.975 55.4678 104 55.4103 104.024C55.3276 104.06 55.233 104.041 55.1705 103.978L54.7702 103.577C54.6672 103.474 54.5 103.474 54.3986 103.577L53.75 104.226C53.647 104.329 53.647 104.496 53.75 104.6L54.147 104.998C54.2128 105.064 54.2263 105.164 54.1875 105.248C54.1638 105.299 54.1419 105.352 54.1233 105.404C54.0912 105.492 54.0101 105.552 53.9172 105.552H53.3548C53.2095 105.552 53.0913 105.668 53.0913 105.814V106.734C53.0913 106.879 53.2078 106.998 53.3531 106.998H54.0709C54.0743 107.008 54.1334 107.172 54.1926 107.309L54.1976 107.313ZM56.9136 107.494C56.1586 107.785 55.3208 107.326 55.1671 106.515C55.054 105.911 55.4019 105.289 55.9762 105.067C56.7312 104.776 57.5689 105.235 57.7226 106.046C57.8358 106.651 57.4878 107.272 56.9136 107.494Z" fill="white"/>
<path d="M44.3202 76.1068H31.8586C30.658 76.1068 29.6848 77.0826 29.6848 78.2864V90.7809C29.6848 91.9846 30.658 92.9604 31.8586 92.9604H44.3202C45.5208 92.9604 46.494 91.9846 46.494 90.7809V78.2864C46.494 77.0826 45.5208 76.1068 44.3202 76.1068Z" fill="#387FF7"/>
<path d="M41.4489 81.9731C41.4489 79.9815 39.7261 78.3947 37.6942 78.6267C36.196 78.7978 34.9732 79.9883 34.7637 81.4854C34.6117 82.5777 34.9799 83.5853 35.6589 84.2982C36.0254 84.6827 36.2197 85.2009 36.2197 85.7326V86.4405H39.9609V85.7326C39.9609 85.2043 40.1484 84.6877 40.5132 84.3067C41.0925 83.7021 41.4506 82.8791 41.4506 81.9731H41.4489Z" fill="white"/>
<path d="M39.9355 87.0959H36.1943V87.9613H39.9355V87.0959Z" fill="white"/>
<path d="M39.9355 88.4185H36.1943V89.2839H39.9355V88.4185Z" fill="white"/>
<path d="M38.5675 89.5972H37.5608V90.4625H38.5675V89.5972Z" fill="white"/>
<path d="M156.835 107.233C156.835 107.233 139.221 94.1543 145.76 76.769C145.76 76.769 147.471 83.0942 152.279 86.5049C152.279 86.5049 161.75 97.2551 156.835 107.233Z" fill="#387FF7"/>
<path d="M181.574 110.519C181.574 110.519 179.174 122.978 162.55 118.199C162.55 118.199 161.684 113.658 170.041 112.314C171.36 112.102 172.703 112.237 174.002 112.558C175.678 112.971 178.595 113.11 181.576 110.519H181.574Z" fill="#387FF7"/>
<path d="M177.988 84.073C177.988 84.073 153.79 93.8123 159.601 113.508C159.601 113.508 164.049 113.211 168.927 107.95C172.144 104.478 174.065 100.017 174.701 95.3212C175.063 92.6556 175.938 88.8063 177.987 84.073H177.988Z" fill="#387FF7"/>
<path d="M149.43 101.78C149.43 101.78 144.221 95.7378 135.428 102.59C135.428 102.59 146.071 102.38 144.277 107.657C144.277 107.657 143.67 114.989 148.717 118.38C148.717 118.38 156.973 107.816 149.43 101.78Z" fill="#387FF7"/>
<path d="M172.867 89.1467C169.09 95.2687 165.677 101.614 162.65 108.141C161.794 109.988 160.964 111.856 159.882 113.579C155.745 120.16 148.099 124.371 145.43 131.675" stroke="#231F20" stroke-width="1.15204" stroke-miterlimit="10" stroke-linecap="round"/>
<path d="M174.6 115.066C170.234 117.817 164.423 116.603 159.63 118.51C154.703 120.469 150.509 126.84 149.143 131.975" stroke="#231F20" stroke-width="1.15204" stroke-miterlimit="10" stroke-linecap="round"/>
<path d="M145.793 83.5328C145.684 86.6657 147.356 89.5819 149.276 92.0578C151.197 94.532 153.44 96.8063 154.813 99.6226C156.36 102.796 156.676 106.554 155.683 109.943C154.87 112.708 153.254 115.152 151.871 117.68C150.487 120.209 149.296 122.989 149.469 125.867" stroke="#231F20" stroke-width="1.15204" stroke-miterlimit="10" stroke-linecap="round"/>
<path d="M139.833 101.45C141.346 101.672 142.826 102.134 144.196 102.818C145.059 103.248 145.912 103.799 146.388 104.639C146.758 105.291 146.866 106.055 146.967 106.798C147.702 112.185 148.437 117.572 149.172 122.961C149.58 125.961 149.984 129.067 149.143 131.977" stroke="#231F20" stroke-width="1.15204" stroke-miterlimit="10" stroke-linecap="round"/>
<path d="M118.237 94.068L129.658 95.5566C139.747 96.8707 148.067 104.122 150.768 113.956L159.383 154.436H58.0283L59.817 131.26C61.1446 114.061 73.3157 99.6497 90.0151 95.5024L95.7916 94.068H118.235H118.237Z" fill="white"/>
<path d="M118.237 94.068L129.658 95.5566C139.747 96.8707 148.067 104.122 150.768 113.956L159.134 154.436H58.0283L59.817 131.26C61.1446 114.061 73.3157 99.6497 90.0151 95.5024L95.7916 94.068H118.235H118.237Z" stroke="#231F20" stroke-width="1.15204" stroke-miterlimit="10" stroke-linecap="round"/>
<path d="M78.2527 122.073H60.7746C51.8616 122.073 44.6343 129.318 44.6343 138.256C44.6343 147.193 51.8599 154.439 60.7746 154.439H78.2527V122.075V122.073Z" fill="white"/>
<path d="M61.6208 122.073H60.7746C51.8616 122.073 44.6343 129.318 44.6343 138.256C44.6343 147.193 51.8599 154.439 60.7746 154.439H78.2527" stroke="#231F20" stroke-width="1.15204" stroke-miterlimit="10" stroke-linecap="round"/>
<path d="M136.507 122.073H153.985C162.898 122.073 170.126 129.318 170.126 138.256C170.126 147.193 162.9 154.439 153.985 154.439H136.507V122.075V122.073Z" fill="white"/>
<path d="M152.445 122.073H153.984C162.897 122.073 170.124 129.318 170.124 138.256C170.124 147.193 162.898 154.439 153.984 154.439H136.506" stroke="#231F20" stroke-width="1.15204" stroke-miterlimit="10" stroke-linecap="round"/>
<path d="M96.8303 112.513L110.964 108.398C110.964 108.398 119.57 102.529 124.649 94.9029L118.237 94.068H95.7933L90.0168 95.5041C84.9531 96.7623 80.3066 98.9656 76.2512 101.902C80.9873 110.674 96.8303 112.515 96.8303 112.515V112.513Z" fill="#231F20"/>
<path d="M97.2003 109.22L111.547 112.513C111.547 112.513 134.496 110.446 138.901 98.6641C136.102 97.0655 132.977 95.9884 129.658 95.5549L118.237 94.0663H95.7934L90.0169 95.5024C88.6792 95.8343 87.3719 96.234 86.095 96.6929C89.5997 103.741 97.202 109.218 97.202 109.218L97.2003 109.22Z" fill="#231F20"/>
<path d="M134.588 87.5277C129.824 73.15 87.5997 76.5573 81.276 88.5337C73.7497 102.788 96.8303 112.513 96.8303 112.513H111.548C111.548 112.513 139.814 103.291 134.588 87.5277Z" fill="white"/>
<path d="M120.659 84.2576C118.034 74.857 94.7782 77.084 91.2954 84.9147C87.1505 94.2339 99.8622 100.595 99.8622 100.595H112.496C112.496 100.595 123.536 94.5642 120.657 84.2576H120.659Z" fill="#231F20"/>
<path d="M96.8303 112.513C96.8303 112.513 73.7497 102.788 81.276 88.5337C87.5997 76.5573 129.824 73.15 134.588 87.5277C139.813 103.291 111.548 112.513 111.548 112.513" stroke="#231F20" stroke-width="1.15204" stroke-miterlimit="10" stroke-linecap="round"/>
<path d="M160.456 128.337C160.456 128.337 166.94 132.458 164.621 141.931" stroke="#231F20" stroke-width="1.15204" stroke-miterlimit="10" stroke-linecap="round"/>
<path d="M54.5778 128.293C54.5778 128.293 48.0936 132.414 50.4126 141.887" stroke="#231F20" stroke-width="1.15204" stroke-miterlimit="10" stroke-linecap="round"/>
<path d="M97.4335 108.954C97.4622 108.989 97.4892 109.025 97.5179 109.06C97.5129 109.054 97.4318 108.947 97.4892 109.023C97.5365 109.088 97.5838 109.15 97.6294 109.213C97.7291 109.35 97.8237 109.489 97.9165 109.629C98.0939 109.902 98.2594 110.183 98.4131 110.469C98.5668 110.757 98.7036 111.052 98.8354 111.348C98.886 111.462 98.783 111.216 98.8286 111.333C98.8404 111.365 98.854 111.396 98.8658 111.426C98.8945 111.499 98.9232 111.572 98.9519 111.646C99.011 111.804 99.0685 111.963 99.1208 112.124C99.3286 112.747 99.4873 113.384 99.6039 114.031C99.6326 114.187 99.6579 114.344 99.6799 114.502C99.6866 114.546 99.6934 114.591 99.6985 114.637C99.6985 114.63 99.6799 114.481 99.69 114.581C99.7018 114.683 99.7154 114.784 99.7255 114.886C99.7593 115.204 99.7829 115.523 99.7964 115.841C99.8268 116.513 99.815 117.189 99.7643 117.86C99.739 118.192 99.7052 118.524 99.6613 118.852C99.6833 118.693 99.6495 118.927 99.6427 118.974C99.6292 119.064 99.6157 119.154 99.6005 119.243C99.5684 119.435 99.5346 119.628 99.4975 119.819C99.2137 121.299 98.7746 122.746 98.2476 124.156C98.1023 124.547 97.9486 124.935 97.7916 125.321C97.7476 125.43 97.702 125.538 97.6564 125.646C97.6632 125.633 97.7037 125.535 97.6649 125.624C97.6395 125.684 97.6142 125.745 97.5889 125.804C97.5061 125.995 97.4234 126.188 97.3389 126.378C96.991 127.166 96.6244 127.945 96.2495 128.72C96.0569 129.118 96.1279 129.653 96.5518 129.878C96.9302 130.078 97.5027 130 97.7071 129.575C99.0803 126.727 100.381 123.794 101.041 120.686C101.644 117.848 101.705 114.856 100.867 112.056C100.398 110.483 99.6478 109.032 98.6242 107.75C98.3472 107.402 97.7156 107.438 97.4301 107.75C97.0923 108.119 97.1345 108.576 97.4301 108.947L97.4335 108.954Z" fill="#231F20"/>
<path d="M111.052 107.128C108.821 109.186 107.166 111.861 106.287 114.771C105.279 118.11 105.448 121.633 106.054 125.028C106.404 126.984 106.899 128.908 107.399 130.829C107.51 131.257 108.007 131.56 108.437 131.42C108.878 131.277 109.147 130.837 109.027 130.378C108.593 128.708 108.162 127.037 107.826 125.343C107.743 124.927 107.667 124.51 107.598 124.092C107.564 123.89 107.534 123.687 107.503 123.486C107.49 123.391 107.476 123.298 107.463 123.203C107.443 123.064 107.478 123.325 107.461 123.186C107.453 123.118 107.444 123.05 107.436 122.984C107.333 122.151 107.267 121.315 107.248 120.475C107.23 119.624 107.26 118.774 107.353 117.929C107.365 117.821 107.378 117.714 107.392 117.607C107.404 117.508 107.392 117.616 107.388 117.631C107.397 117.577 107.404 117.524 107.412 117.47C107.443 117.264 107.478 117.059 107.517 116.852C107.584 116.493 107.665 116.136 107.758 115.782C107.939 115.094 108.169 114.425 108.432 113.767C108.491 113.619 108.437 113.751 108.426 113.779C108.444 113.736 108.461 113.694 108.48 113.653C108.512 113.58 108.544 113.506 108.578 113.433C108.657 113.255 108.741 113.081 108.828 112.906C108.985 112.588 109.152 112.276 109.329 111.97C109.53 111.623 109.743 111.284 109.968 110.954C110.082 110.784 110.202 110.615 110.324 110.451C110.378 110.378 110.434 110.305 110.488 110.231C110.371 110.386 110.562 110.138 110.588 110.105C111.094 109.472 111.65 108.878 112.246 108.329C112.572 108.027 112.572 107.431 112.246 107.132C111.898 106.81 111.4 106.811 111.052 107.132V107.128Z" fill="#231F20"/>
<path d="M111.017 129.98H110.679V125.174C110.679 123.055 112.398 121.333 114.509 121.333H142.785C144.898 121.333 146.616 123.057 146.616 125.174V151.159C146.616 153.277 144.897 155 142.785 155H114.509C112.396 155 110.679 153.276 110.679 151.159V144.368H111.017C114.972 144.368 118.192 141.14 118.192 137.174C118.192 133.208 114.972 129.98 111.017 129.98Z" fill="#414042"/>
<path d="M103.934 125.22V129.641C108.084 129.641 111.447 133.015 111.447 137.174C111.447 141.333 108.083 144.707 103.934 144.707V151.115C103.934 153.074 102.35 154.663 100.396 154.663H72.2094C70.2552 154.663 68.6709 153.074 68.6709 151.115V125.22C68.6709 123.26 70.2552 121.672 72.2094 121.672H100.396C102.35 121.672 103.934 123.26 103.934 125.22Z" fill="#387FF7"/>
<path d="M60.3625 130.458H65.8823L67.6929 128.014C68.0054 127.592 68.6742 127.814 68.6742 128.339V134.851L74.2463 138.254H80.3927C81.5243 138.254 82.4415 139.174 82.4415 140.309C82.4415 141.443 81.5243 142.363 80.3927 142.363H80.2458L80.0363 144.766C79.9738 145.481 79.3928 146.038 78.6783 146.068V147.704C78.6783 148.432 78.0906 149.022 77.3643 149.022H76.6701L76.6464 149.581C76.6059 150.537 75.8222 151.293 74.8662 151.293H68.3905C67.8838 151.293 67.3939 151.111 67.0072 150.783L57.4777 142.676C55.8579 141.459 54.9053 139.548 54.9053 137.518V136.829C54.9053 133.645 57.2226 130.937 60.3625 130.456V130.458Z" fill="white"/>
<path d="M60.3625 130.458H65.8823L67.6929 128.014C68.0054 127.592 68.6742 127.814 68.6742 128.339V134.851L74.2463 138.254H80.3927C81.5243 138.254 82.4415 139.174 82.4415 140.309C82.4415 141.443 81.5243 142.363 80.3927 142.363H80.2458L80.0363 144.766C79.9738 145.481 79.3928 146.038 78.6783 146.068V147.704C78.6783 148.432 78.0906 149.022 77.3643 149.022H76.6701L76.6464 149.581C76.6059 150.537 75.8222 151.293 74.8662 151.293H68.3905C67.8838 151.293 67.3939 151.111 67.0072 150.783L57.4777 142.676C55.8579 141.459 54.9053 139.548 54.9053 137.518V136.829C54.9053 133.645 57.2226 130.937 60.3625 130.456V130.458Z" stroke="#231F20" stroke-width="1.15204" stroke-miterlimit="10" stroke-linecap="round"/>
<path d="M66.2573 139.47L71.4207 142.741L80.2442 142.363" stroke="#231F20" stroke-width="1.15204" stroke-miterlimit="10" stroke-linecap="round"/>
<path d="M65.9397 143.123L71.1014 146.393L78.4503 146.078" stroke="#231F20" stroke-width="1.15204" stroke-miterlimit="10" stroke-linecap="round"/>
<path d="M65.9397 145.94L71.1014 149.21L76.5738 148.976" stroke="#231F20" stroke-width="1.15204" stroke-miterlimit="10" stroke-linecap="round"/>
<path d="M155.399 130.458H149.879L147.699 128.432C147.371 128.127 146.837 128.363 146.839 128.812L146.869 134.986L141.517 138.256H135.371C134.239 138.256 133.322 139.176 133.322 140.31C133.322 141.445 134.239 142.365 135.371 142.365H135.518L135.727 144.768C135.789 145.482 136.37 146.039 137.085 146.07V147.706C137.085 148.434 137.673 149.023 138.399 149.023H139.093L139.117 149.582C139.157 150.539 139.941 151.294 140.897 151.294H147.373C147.88 151.294 148.369 151.113 148.756 150.785L158.286 142.678C159.905 141.46 160.858 139.55 160.858 137.52V136.83C160.858 133.647 158.541 130.939 155.401 130.458H155.399Z" fill="white"/>
<path d="M155.399 130.458H149.879L147.699 128.432C147.371 128.127 146.837 128.363 146.839 128.812L146.869 134.986L141.517 138.256H135.371C134.239 138.256 133.322 139.176 133.322 140.31C133.322 141.445 134.239 142.365 135.371 142.365H135.518L135.727 144.768C135.789 145.482 136.37 146.039 137.085 146.07V147.706C137.085 148.434 137.673 149.023 138.399 149.023H139.093L139.117 149.582C139.157 150.539 139.941 151.294 140.897 151.294H147.373C147.88 151.294 148.369 151.113 148.756 150.785L158.286 142.678C159.905 141.46 160.858 139.55 160.858 137.52V136.83C160.858 133.647 158.541 130.939 155.401 130.458H155.399Z" stroke="#231F20" stroke-width="1.15204" stroke-miterlimit="10" stroke-linecap="round"/>
<path d="M149.503 139.47L144.341 142.741L135.518 142.363" stroke="#231F20" stroke-width="1.15204" stroke-miterlimit="10" stroke-linecap="round"/>
<path d="M149.822 143.123L144.66 146.393L137.311 146.078" stroke="#231F20" stroke-width="1.15204" stroke-miterlimit="10" stroke-linecap="round"/>
<path d="M149.822 145.94L144.66 149.21L139.186 148.976" stroke="#231F20" stroke-width="1.15204" stroke-miterlimit="10" stroke-linecap="round"/>
<path d="M1 154.436H211.987" stroke="#231F20" stroke-width="1.15204" stroke-miterlimit="10" stroke-linecap="round"/>
<path d="M96.8303 87.5277V96.7471C96.8303 97.9359 97.2813 99.079 98.0903 99.9461L103.19 105.414C104.455 106.771 106.573 106.85 107.936 105.594L114.011 99.9884C114.972 99.101 115.519 97.8513 115.519 96.5405V87.5277H96.8303Z" fill="white"/>
<path d="M96.8303 87.5277V96.7471C96.8303 97.9359 97.2813 99.079 98.0903 99.9461L103.19 105.414C104.455 106.771 106.573 106.85 107.936 105.594L114.011 99.9884C114.972 99.101 115.519 97.8513 115.519 96.5405V87.5277H96.8303V87.5277Z" stroke="#231F20" stroke-width="1.15204" stroke-miterlimit="10" stroke-linecap="round"/>
<path d="M101.683 88.9012C98.6949 87.736 95.9013 85.5599 94.572 83.1416C94.3051 82.6556 93.7951 82.3406 93.3863 81.9579C90.4305 79.1941 87.8716 75.3245 86.4225 71.6902C85.7688 70.0509 85.3702 68.3303 85.2199 66.5911C85.0155 64.2389 85.2638 61.8544 85.9411 59.5784C86.2789 58.4421 86.7265 57.3311 87.2771 56.2676C88.4594 53.9848 89.8917 51.6427 91.9895 49.9001C94.0636 48.1778 96.9907 46.1643 99.6864 45.4462C102.583 44.6757 105.262 44.613 108.238 44.9788C111.01 45.3192 113.771 45.8696 116.328 46.9094C118.853 47.9357 121.252 49.5191 122.87 51.5936C123.726 52.691 124.372 53.9171 124.922 55.1685C126.076 57.7867 126.755 60.3388 126.243 63.1534C125.429 67.6191 123.958 71.9866 121.98 76.1289C120.162 79.9341 117.882 84.3914 114.634 87.3533C114.199 87.7496 113.719 88.1103 113.188 88.3948C109.807 90.2051 105.25 90.2932 101.683 88.9012Z" fill="#387FF7"/>
<path d="M114.702 46.3201C113.636 47.4005 112.277 48.1727 110.856 48.718C108.684 49.5512 106.152 50.0491 103.85 49.5783C101.621 49.1228 99.6646 47.6935 98.2948 45.9001C97.7442 45.1803 97.2848 44.3827 97.0044 43.5173C96.5805 42.21 96.5923 40.7231 97.2358 39.5072C97.9216 38.2116 99.2491 37.3513 100.653 36.9398C102.056 36.5283 103.543 36.5165 105.005 36.5639C107.324 36.6384 109.637 36.8552 111.947 37.0702C112.579 37.1295 113.217 37.1888 113.817 37.3988C115.415 37.9576 116.518 39.58 116.683 41.2684C116.849 42.9568 116.165 44.6621 115.053 45.9424C114.94 46.0728 114.824 46.1981 114.704 46.3201H114.702Z" fill="#387FF7"/>
<path d="M96.7713 56.4048C95.1481 57.8341 94.008 59.7325 93.4608 61.8273C91.2127 70.4404 86.6439 94.6997 106.101 95.897C122.367 96.8978 121.615 72.5048 120.507 61.7799C120.105 57.8934 117.688 54.4759 114.114 52.9196C109.848 51.0618 103.603 50.3878 96.7713 56.4031V56.4048Z" fill="white"/>
<path d="M96.7713 56.4048C95.1481 57.8341 94.008 59.7325 93.4608 61.8273C91.2127 70.4404 86.6439 94.6997 106.101 95.897C122.367 96.8978 121.615 72.5048 120.507 61.7799C120.105 57.8934 117.688 54.4759 114.114 52.9196C109.848 51.0618 103.603 50.3878 96.7713 56.4031V56.4048Z" stroke="#231F20" stroke-width="1.15204" stroke-miterlimit="10" stroke-linecap="round"/>
<path d="M91.3528 80.1543C93.7958 80.1543 95.7763 78.1686 95.7763 75.719C95.7763 73.2695 93.7958 71.2838 91.3528 71.2838C88.9097 71.2838 86.9292 73.2695 86.9292 75.719C86.9292 78.1686 88.9097 80.1543 91.3528 80.1543Z" fill="white"/>
<path d="M91.5081 80.3084C89.0658 80.371 87.0373 78.4946 86.9765 76.1187C86.9157 73.741 88.8462 71.7647 91.2886 71.7021" stroke="#231F20" stroke-width="1.15204" stroke-miterlimit="10" stroke-linecap="round"/>
<path d="M121.685 78.1454C124.098 77.766 125.748 75.4967 125.37 73.0767C124.991 70.6567 122.728 69.0025 120.314 69.3819C117.901 69.7613 116.251 72.0306 116.629 74.4506C117.008 76.8705 119.271 78.5247 121.685 78.1454Z" fill="white"/>
<path d="M121.36 69.3447C123.792 69.57 125.583 71.7292 125.358 74.1678C125.133 76.6064 122.98 78.4015 120.548 78.1763" stroke="#231F20" stroke-width="1.15204" stroke-miterlimit="10" stroke-linecap="round"/>
<path d="M95.675 70.1966C99.8249 68.2474 104.002 65.1788 105.302 60.5555C106.826 62.5335 108.865 64.2965 110.885 65.7427C114.185 68.1051 118.695 70.4167 122.855 70.7927C123.15 70.8198 123.617 70.9078 123.899 70.8011C124.111 70.7199 124.29 70.4625 124.395 70.2711C124.657 69.7868 124.723 69.2228 124.851 68.6945C124.912 68.4421 124.966 68.1881 125.012 67.9324C125.133 67.2499 125.282 66.454 125.182 65.7613C125.152 65.5446 125.061 65.3684 124.961 65.1754C124.817 64.8976 124.726 64.6114 124.625 64.3168C124.382 63.6123 124.073 62.9315 123.725 62.2727C123.583 62.0035 123.432 61.7376 123.277 61.4751C122.15 59.575 120.904 57.7545 119.549 56.0288C118.793 55.0652 117.994 54.1254 117.039 53.3819C115.969 52.5487 114.727 51.9865 113.457 51.5648C112.687 51.3091 111.944 51.0974 111.136 51.0703C110.5 51.0483 109.851 50.7045 109.231 50.5589C108.522 50.3929 107.799 50.2879 107.071 50.2371C105.625 50.1372 104.166 50.254 102.745 50.5402C99.9279 51.1093 97.2745 52.3167 94.7646 53.7223C93.41 54.481 92.0655 55.3193 91.0538 56.4996C90.2785 57.4057 89.7262 58.481 89.2499 59.575C88.3007 61.7562 87.6251 64.0543 87.2366 66.4015C86.9562 68.0983 86.7957 69.863 86.8228 71.5852C86.8295 72.0306 86.9038 72.4862 87.3751 72.6589C88.3598 73.0196 89.7043 72.2965 90.6467 72.0425C92.2277 71.6174 93.9623 71.001 95.6767 70.1966H95.675Z" fill="#387FF7"/>
<path d="M101.679 71.7901C101.679 71.7901 99.7658 70.7622 97.8403 72.0983" stroke="#231F20" stroke-width="1.15204" stroke-miterlimit="10" stroke-linecap="round"/>
<path d="M99.1985 76.5658C99.2424 77.1043 99.641 77.5108 100.089 77.4752C100.538 77.4396 100.867 76.9739 100.823 76.4354C100.779 75.8969 100.381 75.4904 99.9332 75.526C99.4839 75.5616 99.1563 76.0273 99.1985 76.5658Z" fill="#387FF7"/>
<path d="M110.368 71.7901C110.368 71.7901 112.282 70.7622 114.207 72.0983" stroke="#231F20" stroke-width="1.15204" stroke-miterlimit="10" stroke-linecap="round"/>
<path d="M112.849 76.5658C112.805 77.1043 112.406 77.5108 111.959 77.4752C111.51 77.4396 111.182 76.9739 111.224 76.4354C111.268 75.8969 111.667 75.4904 112.114 75.526C112.564 75.5616 112.893 76.0273 112.849 76.5658Z" fill="#387FF7"/>
<path d="M106.198 78.5184L105.169 84.9638C105.105 85.3651 105.414 85.7275 105.818 85.7275H107.637" stroke="#231F20" stroke-width="1.15204" stroke-miterlimit="10" stroke-linecap="round"/>
<path d="M109.05 89.1755C109.05 89.8647 108.439 90.4236 107.684 90.4236C106.929 90.4236 106.318 89.8647 106.318 89.1755C106.318 88.4862 106.929 87.9274 107.684 87.9274C108.439 87.9274 109.05 88.4862 109.05 89.1755Z" fill="#FF5722"/>
<path d="M105.755 89.1704C105.755 89.1704 108.045 89.8918 109.245 88.1611" stroke="#231F20" stroke-width="1.15204" stroke-miterlimit="10" stroke-linecap="round"/>
<path d="M38.2024 154.294H29.7758C27.6088 154.294 25.8489 152.529 25.8489 150.356L25.8489 137.731C25.8489 137.213 26.2694 136.791 26.7863 136.791H41.192C41.7088 136.791 42.1294 137.213 42.1294 137.731V150.356C42.1294 152.529 40.3694 154.294 38.2024 154.294Z" fill="#387FF7"/>
<path d="M38.2024 154.294H29.7758C27.6088 154.294 25.8489 152.529 25.8489 150.356L25.8489 137.731C25.8489 137.213 26.2694 136.791 26.7863 136.791H41.192C41.7088 136.791 42.1294 137.213 42.1294 137.731V150.356C42.1294 152.529 40.3694 154.294 38.2024 154.294V154.294Z" stroke="#231F20" stroke-width="1.15204" stroke-miterlimit="10" stroke-linecap="round"/>
<path d="M25.8506 140.415H24.1363C22.8374 140.415 21.7852 141.47 21.7852 142.773V143.188C21.7852 144.49 22.8374 145.545 24.1363 145.545H25.8506" stroke="#231F20" stroke-width="1.15204" stroke-miterlimit="10" stroke-linecap="round"/>
<path d="M39.9185 139.357V147.213" stroke="#231F20" stroke-width="1.15204" stroke-miterlimit="10" stroke-linecap="round"/>
<path d="M174.162 120.153C173.465 120.153 172.899 120.739 172.899 121.462L175.363 134.383H177.888L175.424 121.462C175.424 120.739 174.858 120.153 174.161 120.153H174.162Z" fill="#387FF7"/>
<path d="M187.713 120.153C188.411 120.153 188.977 120.739 188.977 121.462L186.512 134.383H183.987L186.452 121.462C186.452 120.739 187.017 120.153 187.715 120.153H187.713Z" fill="#414042"/>
<path d="M177.8 120.153H179.266C179.559 120.153 179.797 120.392 179.797 120.685V134.383H177.272V120.685C177.272 120.392 177.51 120.153 177.802 120.153H177.8Z" fill="#414042"/>
<path d="M182.727 120.153H184.193C184.486 120.153 184.724 120.392 184.724 120.685V134.383H182.199V120.685C182.199 120.392 182.437 120.153 182.729 120.153H182.727Z" fill="#003769"/>
<path d="M181.728 118.756C181.03 118.756 180.464 119.342 180.464 120.065L179.233 134.385H181.758L182.989 120.065C182.989 119.342 182.423 118.756 181.726 118.756H181.728Z" fill="#387FF7"/>
<path d="M172.62 129.552H188.945C189.154 129.552 189.325 129.723 189.325 129.933V151.933C189.325 153.198 188.301 154.224 187.039 154.224H174.525C173.264 154.224 172.24 153.198 172.24 151.933V129.933C172.24 129.723 172.411 129.552 172.62 129.552Z" fill="white"/>
<path d="M185.565 129.552H181.174C181.383 129.552 181.554 129.723 181.554 129.933V151.933C181.554 153.198 180.53 154.224 179.268 154.224H183.66C184.921 154.224 185.945 153.198 185.945 151.933V129.933C185.945 129.723 185.774 129.552 185.565 129.552Z" fill="#CDD5FE"/>
<path d="M172.62 129.552H188.945C189.154 129.552 189.325 129.723 189.325 129.933V151.933C189.325 153.198 188.301 154.224 187.039 154.224H174.525C173.264 154.224 172.24 153.198 172.24 151.933V129.933C172.24 129.723 172.411 129.552 172.62 129.552V129.552Z" stroke="#231F20" stroke-width="1.15204" stroke-miterlimit="10" stroke-linecap="round"/>
<path d="M120.733 71.2448L124.395 70.2711" stroke="#231F20" stroke-width="1.15204" stroke-miterlimit="10" stroke-linecap="round"/>
<path d="M90.6384 72.3879L87.1809 72.7571" stroke="#231F20" stroke-width="1.15204" stroke-miterlimit="10" stroke-linecap="round"/>
<path d="M98.2474 80.9536C102.202 80.9536 105.407 77.7396 105.407 73.7749C105.407 69.8102 102.202 66.5962 98.2474 66.5962C94.2932 66.5962 91.0876 69.8102 91.0876 73.7749C91.0876 77.7396 94.2932 80.9536 98.2474 80.9536Z" stroke="#231F20" stroke-width="1.15204" stroke-miterlimit="10" stroke-linecap="round"/>
<path d="M114.031 80.9536C117.986 80.9536 121.191 77.7396 121.191 73.7749C121.191 69.8102 117.986 66.5962 114.031 66.5962C110.077 66.5962 106.872 69.8102 106.872 73.7749C106.872 77.7396 110.077 80.9536 114.031 80.9536Z" stroke="#231F20" stroke-width="1.15204" stroke-miterlimit="10" stroke-linecap="round"/>
<path d="M105.406 73.6259H106.87" stroke="#231F20" stroke-width="1.15204" stroke-miterlimit="10" stroke-linecap="round"/>
</g>
<path d="M132.029 69.9914L133.985 59.3874C132.296 55.5987 131.404 51.3763 131.588 46.9191C132.185 32.3698 144.107 20.6243 158.625 20.293C174.5 19.9286 187.428 32.954 186.971 48.8887C186.56 63.179 175.181 74.9486 160.95 75.8009C154.912 76.1623 149.283 74.551 144.582 71.5936L135.321 73.2952C133.375 73.6536 131.672 71.946 132.032 69.9944L132.029 69.9914Z" fill="#0473F5"/>
<g filter="url(#filter0_d_1_242)">
<path d="M164.752 49.5326C164.752 46.5323 167.227 44.0997 170.281 44.0997C171.544 44.0907 172.772 44.5175 173.758 45.3084C174.745 46.0994 175.43 47.2064 175.699 48.4439H178.573V50.617H175.699C175.431 51.8551 174.746 52.9629 173.759 53.7545C172.772 54.5462 171.544 54.9735 170.281 54.9649C167.227 54.9654 164.752 52.5333 164.752 49.5326ZM168.205 49.5326C168.212 50.0783 168.434 50.599 168.823 50.9807C169.212 51.3623 169.737 51.5735 170.281 51.5681C170.629 51.5695 170.972 51.4832 171.279 51.3171C171.585 51.151 171.845 50.9104 172.035 50.6174H170.281V48.4443H172.035C171.845 48.1515 171.585 47.9111 171.279 47.745C170.972 47.579 170.629 47.4925 170.281 47.4935C169.736 47.4882 169.212 47.6999 168.822 48.0823C168.433 48.4646 168.211 48.9863 168.205 49.5326ZM153.691 49.5326C153.691 46.5323 156.167 44.0997 159.221 44.0997C162.271 44.0997 164.747 46.5321 164.747 49.5326C164.747 52.5331 162.271 54.9654 159.221 54.9654C156.168 54.9654 153.692 52.5333 153.692 49.5326H153.691ZM157.146 49.5326C157.153 50.0782 157.375 50.599 157.764 50.9806C158.153 51.3622 158.677 51.5735 159.222 51.5681C159.765 51.5729 160.289 51.3613 160.677 50.9798C161.066 50.5982 161.288 50.0778 161.294 49.5326C161.288 48.9868 161.067 48.4656 160.678 48.0833C160.29 47.701 159.766 47.4889 159.222 47.4935C158.677 47.4884 158.152 47.7002 157.763 48.0826C157.374 48.4649 157.152 48.9864 157.146 49.5326H157.146ZM150.927 54.9654V44.0997H153.689V54.9654H150.927ZM139.868 49.5326C139.868 46.5323 142.344 44.0997 145.398 44.0997C148.453 44.0997 150.927 46.5321 150.927 49.5326C150.927 52.5331 148.452 54.9654 145.398 54.9654C142.344 54.9654 139.867 52.5333 139.867 49.5326H139.868ZM143.321 49.5326C143.329 50.0783 143.552 50.5988 143.941 50.9802C144.33 51.3617 144.854 51.5731 145.398 51.5681C145.942 51.5724 146.465 51.3606 146.853 50.9791C147.241 50.5976 147.463 50.0775 147.469 49.5326C147.463 48.9871 147.242 48.4662 146.854 48.0839C146.466 47.7017 145.942 47.4894 145.398 47.4935C144.853 47.4888 144.329 47.7007 143.94 48.0829C143.55 48.4651 143.328 48.9864 143.321 49.5326Z" fill="white"/>
</g>
</g>
<defs>
<filter id="filter0_d_1_242" x="139.867" y="44.0996" width="42.7053" height="15.3659" filterUnits="userSpaceOnUse" color-interpolation-filters="sRGB">
<feFlood flood-opacity="0" result="BackgroundImageFix"/>
<feColorMatrix in="SourceAlpha" type="matrix" values="0 0 0 0 0 0 0 0 0 0 0 0 0 0 0 0 0 0 127 0" result="hardAlpha"/>
<feOffset dx="2" dy="2.5"/>
<feGaussianBlur stdDeviation="1"/>
<feColorMatrix type="matrix" values="0 0 0 0 0.027451 0 0 0 0 0.156863 0 0 0 0 0.305882 0 0 0 0.12 0"/>
<feBlend mode="normal" in2="BackgroundImageFix" result="effect1_dropShadow_1_242"/>
<feBlend mode="normal" in="SourceGraphic" in2="effect1_dropShadow_1_242" result="shape"/>
</filter>
<clipPath id="clip0_1_242">
<rect width="212" height="155" fill="white"/>
</clipPath>
</defs>
</svg>
